<mxfile host="65bd71144e">
    <diagram id="dfwH_3myj91YeB3Efj3k" name="Page-1">
        <mxGraphModel dx="600" dy="459" grid="1" gridSize="10" guides="1" tooltips="1" connect="1" arrows="1" fold="1" page="1" pageScale="1" pageWidth="827" pageHeight="1169" math="0" shadow="0">
            <root>
                <mxCell id="0"/>
                <mxCell id="1" parent="0"/>
                <mxCell id="4" value="" style="edgeStyle=none;html=1;" parent="1" source="2" target="3" edge="1">
                    <mxGeometry relative="1" as="geometry"/>
                </mxCell>
                <mxCell id="2" value="INICIO" style="ellipse;whiteSpace=wrap;html=1;fillColor=#008a00;fontColor=#ffffff;strokeColor=#005700;" parent="1" vertex="1">
                    <mxGeometry x="330" y="40" width="120" height="80" as="geometry"/>
                </mxCell>
                <mxCell id="6" value="" style="edgeStyle=none;html=1;" parent="1" source="3" target="5" edge="1">
                    <mxGeometry relative="1" as="geometry"/>
                </mxCell>
                <mxCell id="3" value="a,b" style="shape=parallelogram;perimeter=parallelogramPerimeter;whiteSpace=wrap;html=1;fixedSize=1;fillColor=#6a00ff;strokeColor=#3700CC;fontColor=#ffffff;" parent="1" vertex="1">
                    <mxGeometry x="330" y="150" width="120" height="60" as="geometry"/>
                </mxCell>
                <mxCell id="7" style="edgeStyle=none;html=1;exitX=0;exitY=0.5;exitDx=0;exitDy=0;" parent="1" source="5" edge="1">
                    <mxGeometry relative="1" as="geometry">
                        <mxPoint x="130" y="310" as="targetPoint"/>
                        <Array as="points">
                            <mxPoint x="130" y="280"/>
                        </Array>
                    </mxGeometry>
                </mxCell>
                <mxCell id="8" style="edgeStyle=none;html=1;" parent="1" source="5" edge="1">
                    <mxGeometry relative="1" as="geometry">
                        <mxPoint x="610" y="330" as="targetPoint"/>
                        <Array as="points">
                            <mxPoint x="610" y="280"/>
                        </Array>
                    </mxGeometry>
                </mxCell>
                <mxCell id="5" value="a&amp;lt;b" style="rhombus;whiteSpace=wrap;html=1;fillColor=#a20025;strokeColor=#6F0000;fontColor=#ffffff;" parent="1" vertex="1">
                    <mxGeometry x="325" y="240" width="130" height="80" as="geometry"/>
                </mxCell>
                <mxCell id="29" style="edgeStyle=none;html=1;entryX=0.583;entryY=-0.01;entryDx=0;entryDy=0;entryPerimeter=0;" parent="1" source="9" target="30" edge="1">
                    <mxGeometry relative="1" as="geometry">
                        <mxPoint x="430" y="1110" as="targetPoint"/>
                        <Array as="points">
                            <mxPoint x="130" y="800"/>
                            <mxPoint x="310" y="800"/>
                            <mxPoint x="310" y="950"/>
                            <mxPoint x="310" y="1080"/>
                        </Array>
                    </mxGeometry>
                </mxCell>
                <mxCell id="9" value="a debe ser mayor que b" style="shape=document;whiteSpace=wrap;html=1;boundedLbl=1;fillColor=#008a00;fontColor=#ffffff;strokeColor=#005700;" parent="1" vertex="1">
                    <mxGeometry x="70" y="310" width="120" height="80" as="geometry"/>
                </mxCell>
                <mxCell id="13" style="edgeStyle=none;html=1;" parent="1" source="10" target="14" edge="1">
                    <mxGeometry relative="1" as="geometry">
                        <mxPoint x="605" y="430" as="targetPoint"/>
                    </mxGeometry>
                </mxCell>
                <mxCell id="10" value="cant_num=0&lt;br&gt;a=a+1" style="rounded=0;whiteSpace=wrap;html=1;fillColor=#1ba1e2;strokeColor=#006EAF;fontColor=#ffffff;" parent="1" vertex="1">
                    <mxGeometry x="520" y="330" width="170" height="60" as="geometry"/>
                </mxCell>
                <mxCell id="15" style="edgeStyle=none;html=1;" parent="1" source="14" edge="1">
                    <mxGeometry relative="1" as="geometry">
                        <mxPoint x="820" y="580" as="targetPoint"/>
                        <Array as="points">
                            <mxPoint x="760" y="500"/>
                            <mxPoint x="820" y="500"/>
                            <mxPoint x="820" y="560"/>
                        </Array>
                    </mxGeometry>
                </mxCell>
                <mxCell id="23" value="" style="edgeStyle=none;html=1;" parent="1" source="14" target="22" edge="1">
                    <mxGeometry relative="1" as="geometry"/>
                </mxCell>
                <mxCell id="14" value="a&amp;lt;b" style="rhombus;whiteSpace=wrap;html=1;strokeColor=#A50040;fillColor=#d80073;fontColor=#ffffff;" parent="1" vertex="1">
                    <mxGeometry x="537.5" y="450" width="135" height="100" as="geometry"/>
                </mxCell>
                <mxCell id="44" style="edgeStyle=none;html=1;entryX=0.585;entryY=-0.015;entryDx=0;entryDy=0;entryPerimeter=0;" edge="1" parent="1" source="16" target="30">
                    <mxGeometry relative="1" as="geometry">
                        <mxPoint x="310" y="1100" as="targetPoint"/>
                        <Array as="points">
                            <mxPoint x="980" y="625"/>
                            <mxPoint x="980" y="1109"/>
                        </Array>
                    </mxGeometry>
                </mxCell>
                <mxCell id="16" value="cant_num" style="shape=document;whiteSpace=wrap;html=1;boundedLbl=1;fillColor=#006633;fontColor=#ffffff;strokeColor=#006EAF;" parent="1" vertex="1">
                    <mxGeometry x="750" y="585" width="120" height="80" as="geometry"/>
                </mxCell>
                <mxCell id="34" value="" style="edgeStyle=none;html=1;" edge="1" parent="1" source="22" target="33">
                    <mxGeometry relative="1" as="geometry"/>
                </mxCell>
                <mxCell id="22" value="r = a % 2" style="whiteSpace=wrap;html=1;fillColor=#006633;fontColor=#ffffff;strokeColor=#006633;" parent="1" vertex="1">
                    <mxGeometry x="511.25" y="605" width="187.5" height="60" as="geometry"/>
                </mxCell>
                <mxCell id="24" value="FALSO" style="text;html=1;align=center;verticalAlign=middle;resizable=0;points=[];autosize=1;strokeColor=none;fillColor=none;" parent="1" vertex="1">
                    <mxGeometry x="685" y="470" width="50" height="20" as="geometry"/>
                </mxCell>
                <mxCell id="25" value="VERDADERO" style="text;html=1;align=center;verticalAlign=middle;resizable=0;points=[];autosize=1;strokeColor=none;fillColor=none;" parent="1" vertex="1">
                    <mxGeometry x="608.75" y="575" width="90" height="20" as="geometry"/>
                </mxCell>
                <mxCell id="30" value="FIN&amp;nbsp;" style="ellipse;whiteSpace=wrap;html=1;fillColor=#003333;" parent="1" vertex="1">
                    <mxGeometry x="240" y="1110" width="120" height="80" as="geometry"/>
                </mxCell>
                <mxCell id="31" value="SI" style="text;html=1;align=center;verticalAlign=middle;resizable=0;points=[];autosize=1;strokeColor=none;fillColor=none;" parent="1" vertex="1">
                    <mxGeometry x="495" y="250" width="30" height="20" as="geometry"/>
                </mxCell>
                <mxCell id="32" value="NIO" style="text;html=1;align=center;verticalAlign=middle;resizable=0;points=[];autosize=1;strokeColor=none;fillColor=none;" parent="1" vertex="1">
                    <mxGeometry x="260" y="250" width="40" height="20" as="geometry"/>
                </mxCell>
                <mxCell id="35" style="edgeStyle=none;html=1;" edge="1" parent="1" source="33">
                    <mxGeometry relative="1" as="geometry">
                        <mxPoint x="730" y="810" as="targetPoint"/>
                        <Array as="points">
                            <mxPoint x="730" y="750"/>
                        </Array>
                    </mxGeometry>
                </mxCell>
                <mxCell id="36" style="edgeStyle=none;html=1;entryX=0.5;entryY=1;entryDx=0;entryDy=0;" edge="1" parent="1" source="33" target="37">
                    <mxGeometry relative="1" as="geometry">
                        <mxPoint x="760" y="890" as="targetPoint"/>
                        <Array as="points">
                            <mxPoint x="490" y="750"/>
                            <mxPoint x="490" y="900"/>
                            <mxPoint x="750" y="900"/>
                            <mxPoint x="760" y="900"/>
                        </Array>
                    </mxGeometry>
                </mxCell>
                <mxCell id="33" value="r == 0" style="rhombus;whiteSpace=wrap;html=1;fillColor=#FF3333;strokeColor=#006633;fontColor=#ffffff;" vertex="1" parent="1">
                    <mxGeometry x="547.5" y="700" width="115" height="105" as="geometry"/>
                </mxCell>
                <mxCell id="37" value="cant_num=cant_num+1" style="rounded=0;whiteSpace=wrap;html=1;strokeColor=#006633;fillColor=#FF3333;" vertex="1" parent="1">
                    <mxGeometry x="690" y="810" width="140" height="60" as="geometry"/>
                </mxCell>
                <mxCell id="38" value="verdadero" style="text;html=1;align=center;verticalAlign=middle;resizable=0;points=[];autosize=1;strokeColor=none;fillColor=none;" vertex="1" parent="1">
                    <mxGeometry x="655" y="730" width="70" height="20" as="geometry"/>
                </mxCell>
                <mxCell id="39" value="falso" style="text;html=1;align=center;verticalAlign=middle;resizable=0;points=[];autosize=1;strokeColor=none;fillColor=none;" vertex="1" parent="1">
                    <mxGeometry x="510" y="730" width="40" height="20" as="geometry"/>
                </mxCell>
                <mxCell id="41" style="edgeStyle=none;html=1;" edge="1" parent="1">
                    <mxGeometry relative="1" as="geometry">
                        <mxPoint x="615" y="940" as="targetPoint"/>
                        <mxPoint x="615" y="900" as="sourcePoint"/>
                    </mxGeometry>
                </mxCell>
                <mxCell id="43" style="edgeStyle=none;html=1;entryX=0.5;entryY=0;entryDx=0;entryDy=0;" edge="1" parent="1" source="42" target="14">
                    <mxGeometry relative="1" as="geometry">
                        <mxPoint x="600" y="440" as="targetPoint"/>
                        <Array as="points">
                            <mxPoint x="610" y="1040"/>
                            <mxPoint x="430" y="1040"/>
                            <mxPoint x="430" y="450"/>
                        </Array>
                    </mxGeometry>
                </mxCell>
                <mxCell id="42" value="a=a+1" style="rounded=0;whiteSpace=wrap;html=1;strokeColor=#3700CC;fillColor=#6a00ff;fontColor=#ffffff;" vertex="1" parent="1">
                    <mxGeometry x="552.5" y="940" width="120" height="60" as="geometry"/>
                </mxCell>
            </root>
        </mxGraphModel>
    </diagram>
</mxfile>